<?xml version="1.0" encoding="utf-8"?>
<!-- Generator: Adobe Illustrator 15.0.0, SVG Export Plug-In . SVG Version: 6.00 Build 0)  -->
<!DOCTYPE svg PUBLIC "-//W3C//DTD SVG 1.1//EN" "http://www.w3.org/Graphics/SVG/1.1/DTD/svg11.dtd">
<svg version="1.1" id="Layer_1" xmlns="http://www.w3.org/2000/svg" xmlns:xlink="http://www.w3.org/1999/xlink" x="0px" y="0px"
	 width="792px" height="227px" viewBox="0 0 792 227" enable-background="new 0 0 792 227" xml:space="preserve">
<path d="M106.264,55.582H83.57c-0.12-1.13-0.181-1.968-0.181-2.511c-0.536-6.872-2.062-11.195-4.573-12.961
	c-2.513-1.761-8.433-2.642-17.761-2.642c-11.003,0-18.196,1.017-21.574,3.044c-3.379,2.039-5.068,6.312-5.068,12.83
	c0,7.714,1.376,12.352,4.127,13.907c2.75,1.555,11.841,2.751,27.269,3.587c18.239,1.017,30.033,3.616,35.386,7.802
	c5.351,4.186,8.029,12.889,8.029,26.1c0,16.271-3.141,26.78-9.419,31.531c-6.28,4.757-20.122,7.133-41.531,7.133
	c-19.256,0-32.039-2.332-38.348-6.997c-6.309-4.664-9.463-14.113-9.463-28.346l-0.089-4.484h22.604l0.09,2.598
	c0,8.556,1.495,13.787,4.485,15.701c2.99,1.913,11.152,2.871,24.487,2.871c10.407,0,17.044-1.105,19.915-3.318
	c2.871-2.212,4.305-7.327,4.305-15.341c0-5.92-1.092-9.85-3.273-11.796c-2.185-1.941-6.892-3.121-14.128-3.545l-12.828-0.805
	c-19.374-1.136-31.753-3.827-37.135-8.073c-5.382-4.245-8.074-13.368-8.074-27.361c0-14.287,3.243-23.811,9.734-28.568
	c6.485-4.752,19.449-7.127,38.884-7.127c18.418,0,30.828,2.179,37.226,6.545c6.399,4.365,9.598,12.89,9.598,25.562V55.582z"/>
<polygon points="174.164,40.697 174.164,142.325 150.934,142.325 150.934,40.697 115.591,40.697 115.591,19.886 210.761,19.886 
	210.761,40.697 "/>
<path d="M277.884,118.823h-52.835l-7.623,23.502h-24.578l40.725-122.438h34.891l41.354,122.438h-24.132L277.884,118.823z
	 M272.502,101.693l-21.168-63.78l-20.812,63.78H272.502z"/>
<path d="M396.021,98.638h23.324v4.219c0,17.043-3.11,28.063-9.33,33.053c-6.22,4.997-19.973,7.492-41.263,7.492
	c-24.159,0-39.02-3.948-44.583-11.841c-5.56-7.894-8.344-29.004-8.344-63.329c0-20.212,3.773-33.504,11.306-39.87
	c7.536-6.371,23.291-9.552,47.272-9.552c17.461,0,29.121,2.616,34.982,7.845c5.86,5.235,8.789,15.624,8.789,31.173l0.094,2.777
	h-23.321v-3.137c0-8.013-1.513-13.139-4.535-15.385c-3.023-2.24-9.911-3.365-20.674-3.365c-14.412,0-23.068,1.767-25.971,5.295
	c-2.902,3.529-4.349,13.994-4.349,31.396c0,23.441,1.299,37.314,3.904,41.621c2.598,4.305,11.014,6.458,25.248,6.458
	c11.545,0,19.032-1.196,22.472-3.588c3.436-2.392,5.154-7.655,5.154-15.787L396.021,98.638z"/>
<polygon points="457.193,19.887 457.193,69.76 468.142,69.76 508.861,19.887 537.749,19.887 488.321,79.354 542.946,142.325 
	513.166,142.325 468.315,89.31 457.193,89.31 457.193,142.325 433.965,142.325 433.965,19.887 "/>
<path d="M549.949,19.887h83.774v19.549h-67.51L549.949,19.887z M566.214,122.775h67.51v19.55h-83.774L566.214,122.775z
	 M573.178,71.01h57.409v17.136h-57.409V71.01z"/>
<path d="M651.576,142.326V19.887h60.192c17.102,0,29.072,3.735,35.924,11.21c6.844,7.474,10.269,20.57,10.269,39.289
	c0,30.557-2.752,50.188-8.252,58.887c-5.5,8.703-17.913,13.053-37.224,13.053H651.576z M674.812,122.77h33.096
	c11.124,0,18.31-2.555,21.57-7.67c3.264-5.111,4.895-16.396,4.895-33.858c0-18.059-1.468-29.541-4.398-34.445
	c-2.93-4.904-9.809-7.36-20.632-7.36h-34.53V122.77z"/>
<polygon points="765.284,34.703 762.652,34.703 762.652,22.311 757.961,22.311 757.961,19.887 769.991,19.887 769.991,22.311 
	765.284,22.311 "/>
<polygon points="779.614,31.063 779.516,31.063 774.874,24.122 774.874,34.704 772.318,34.704 772.318,19.887 775.096,19.887 
	779.614,26.891 784.116,19.887 786.894,19.887 786.894,34.704 784.289,34.704 784.289,24.076 "/>
<line x1="488.321" y1="79.355" x2="537.749" y2="19.887"/>
<line fill="none" stroke="#000000" stroke-width="1.392" stroke-miterlimit="10" x1="488.321" y1="79.355" x2="537.749" y2="19.887"/>
<polygon fill="#FFF200" points="20.487,162 20.487,205.306 44.949,205.306 44.949,214.173 10.588,214.173 10.588,162 "/>
<rect x="49.957" y="162" fill="#FFF200" width="9.899" height="52.173"/>
<polygon fill="#FFF200" points="79.006,170.332 79.006,184.398 102.398,184.398 102.398,192.73 79.006,192.73 79.006,214.173 
	69.106,214.173 69.106,162 103.659,162 103.659,170.332 "/>
<polygon fill="#FFF200" points="118.566,170.332 118.566,183.787 143.029,183.787 143.029,191.087 118.566,191.087 118.566,205.84 
	144.596,205.84 144.596,214.173 108.667,214.173 108.667,162 144.367,162 144.367,170.332 "/>
<path fill="#FFF200" d="M244.891,162l-13.951,52.173h-14.639l-7.262-26.756c-0.663-2.42-1.44-5.656-2.332-9.708l-0.727-3.211h-0.343
	l-0.765,3.25l-0.726,3.21c-0.535,2.167-1.109,4.332-1.719,6.498l-7.454,26.717h-14.487L166.956,162h10.09l7.53,28.628
	c0.459,1.835,1.032,4.37,1.72,7.606l0.803,3.823l0.764,3.822h0.344c0.408-1.682,0.714-2.955,0.917-3.822l0.918-3.784
	c0.484-1.987,1.159-4.523,2.026-7.606L200.094,162h11.62l7.836,28.667c0.663,2.446,1.312,4.981,1.949,7.606l0.879,3.784l0.918,3.822
	h0.305l0.841-3.822l0.803-3.823c0.663-3.082,1.262-5.631,1.796-7.644l7.722-28.59H244.891z"/>
<rect x="249.516" y="162" fill="#FFF200" width="9.9" height="52.173"/>
<polygon fill="#FFF200" points="289.458,170.868 289.458,214.173 279.56,214.173 279.56,170.868 264.5,170.868 264.5,162 
	305.054,162 305.054,170.868 "/>
<polygon fill="#FFF200" points="354.322,162 354.322,214.173 344.423,214.173 344.423,191.622 319.96,191.622 319.96,214.173 
	310.061,214.173 310.061,162 319.96,162 319.96,183.29 344.423,183.29 344.423,162 "/>
<path fill="#FFF200" d="M385.168,161.541c9.48,0,15.581,1.574,18.308,4.721c2.728,3.147,4.091,10.185,4.091,21.118
	c0,11.95-1.371,19.48-4.109,22.589c-2.738,3.108-9.371,4.663-19.896,4.663c-9.479,0-15.607-1.535-18.385-4.605
	c-2.776-3.072-4.165-9.83-4.165-20.278c0-12.434,1.362-20.245,4.089-23.43S374.517,161.541,385.168,161.541 M384.403,170.027
	c-6.65,0-10.536,0.854-11.658,2.56c-1.121,1.708-1.681,7.619-1.681,17.736c0,7.492,0.656,12.002,1.968,13.531
	c1.312,1.528,5.179,2.293,11.6,2.293c6.142,0,9.824-0.86,11.047-2.58c1.224-1.721,1.835-6.937,1.835-15.653
	c0-8.74-0.58-13.906-1.739-15.498C394.615,170.823,390.824,170.027,384.403,170.027"/>
<path fill="#FFF200" d="M447.814,162h9.899v34.706c0,7.262-1.396,12.065-4.185,14.409c-2.791,2.344-8.493,3.517-17.104,3.517
	c-9.098,0-15.061-1.109-17.89-3.324c-2.828-2.218-4.242-6.894-4.242-14.029V162h9.899v35.279c0,3.848,0.688,6.287,2.063,7.32
	c1.377,1.031,4.613,1.547,9.709,1.547c5.224,0,8.505-0.522,9.844-1.566c1.336-1.046,2.006-3.605,2.006-7.684V162z"/>
<polygon fill="#FFF200" points="487.642,170.868 487.642,214.173 477.742,214.173 477.742,170.868 462.683,170.868 462.683,162 
	503.236,162 503.236,170.868 "/>
<path fill="#FFF200" d="M601.163,162l-13.952,52.173h-14.639l-7.264-26.756c-0.661-2.42-1.438-5.656-2.33-9.708l-0.726-3.211h-0.346
	l-0.763,3.25l-0.727,3.21c-0.535,2.167-1.109,4.332-1.722,6.498l-7.452,26.717h-14.486L523.227,162h10.092l7.529,28.628
	c0.459,1.835,1.032,4.37,1.72,7.606l0.803,3.823l0.765,3.822h0.344c0.408-1.682,0.714-2.955,0.918-3.822l0.917-3.784
	c0.483-1.987,1.159-4.523,2.025-7.606L556.366,162h11.619l7.836,28.667c0.661,2.446,1.312,4.981,1.949,7.606l0.879,3.784
	l0.917,3.822h0.307l0.841-3.822l0.802-3.823c0.663-3.082,1.262-5.631,1.797-7.644l7.721-28.59H601.163z"/>
<rect x="605.788" y="162" fill="#FFF200" width="9.899" height="52.173"/>
<path fill="#FFF200" d="M624.938,214.173V162h25.723c6.396,0,10.806,1.108,13.226,3.324c2.421,2.218,3.631,6.231,3.631,12.04
	c0,5.275-0.605,8.881-1.815,10.818c-1.211,1.936-3.688,3.274-7.435,4.013v0.344c5.785,0.357,8.677,3.733,8.677,10.129v11.505h-9.899
	v-9.518c0-5.376-2.65-8.064-7.95-8.064h-14.258v17.582H624.938z M634.836,188.258h14.22c3.388,0,5.638-0.605,6.746-1.815
	c1.108-1.211,1.663-3.638,1.663-7.282c0-3.72-0.479-6.122-1.435-7.205c-0.955-1.083-3.051-1.624-6.287-1.624h-14.907V188.258z"/>
<polygon fill="#FFF200" points="684.258,170.332 684.258,183.787 708.72,183.787 708.72,191.087 684.258,191.087 684.258,205.84 
	710.288,205.84 710.288,214.173 674.359,214.173 674.359,162 710.059,162 710.059,170.332 "/>
<path fill="#FFF200" d="M756.384,177.212h-9.67c-0.052-0.484-0.077-0.841-0.077-1.07c-0.229-2.93-0.879-4.771-1.95-5.523
	c-1.068-0.752-3.592-1.128-7.566-1.128c-4.688,0-7.753,0.433-9.192,1.3c-1.44,0.866-2.16,2.689-2.16,5.466
	c0,3.287,0.585,5.262,1.759,5.924c1.171,0.663,5.046,1.173,11.619,1.529c7.771,0.433,12.798,1.542,15.079,3.326
	c2.28,1.783,3.421,5.49,3.421,11.122c0,6.931-1.339,11.409-4.014,13.436c-2.676,2.026-8.574,3.038-17.697,3.038
	c-8.205,0-13.653-0.993-16.34-2.981c-2.688-1.988-4.032-6.014-4.032-12.078l-0.038-1.912h9.632l0.038,1.108
	c0,3.644,0.638,5.874,1.911,6.689c1.274,0.817,4.752,1.224,10.435,1.224c4.434,0,7.262-0.471,8.485-1.414
	c1.224-0.943,1.835-3.122,1.835-6.536c0-2.522-0.465-4.199-1.396-5.026c-0.93-0.829-2.937-1.332-6.021-1.511l-5.465-0.343
	c-8.256-0.484-13.532-1.631-15.825-3.44c-2.292-1.81-3.439-5.695-3.439-11.658c0-6.09,1.383-10.148,4.147-12.174
	c2.766-2.026,8.287-3.039,16.569-3.039c7.85,0,13.136,0.93,15.863,2.791c2.725,1.859,4.089,5.491,4.089,10.893V177.212z"/>
</svg>
