<?xml version="1.0" encoding="utf-8"?>
<!-- Generator: Adobe Illustrator 15.0.0, SVG Export Plug-In . SVG Version: 6.00 Build 0)  -->
<!DOCTYPE svg PUBLIC "-//W3C//DTD SVG 1.1//EN" "http://www.w3.org/Graphics/SVG/1.1/DTD/svg11.dtd">
<svg version="1.1" id="Layer_1" xmlns="http://www.w3.org/2000/svg" xmlns:xlink="http://www.w3.org/1999/xlink" x="0px" y="0px"
	 width="264px" height="181px" viewBox="0 0 264 181" enable-background="new 0 0 264 181" xml:space="preserve">
<path d="M14.958,5.589h109.411V31.12H36.2L14.958,5.589z M36.2,139.963h88.169v25.531H14.958L36.2,139.963z M45.294,72.354h74.978
	v22.383H45.294V72.354z"/>
<polygon points="154.748,24.938 151.311,24.938 151.311,8.754 145.184,8.754 145.184,5.589 160.896,5.589 160.896,8.754 
	154.748,8.754 "/>
<polygon points="173.465,20.185 173.335,20.185 167.273,11.117 167.273,24.938 163.936,24.938 163.936,5.589 167.562,5.589 
	173.465,14.735 179.344,5.589 182.971,5.589 182.971,24.938 179.568,24.938 179.568,11.057 "/>
</svg>
